{
    "asset" : {
        "generator" : "Khronos glTF Blender I/O v3.2.40",
        "version" : "2.0"
    },
    "scene" : 0,
    "scenes" : [
        {
            "name" : "Scene",
            "nodes" : [
                0,
                1,
                2
            ]
        }
    ],
    "nodes" : [
        {
            "mesh" : 0,
            "name" : "BobaTea",
            "scale" : [
                0.5,
                0.5,
                0.5
            ]
        },
        {
            "mesh" : 1,
            "name" : "TapiokaBalls",
            "scale" : [
                0.5,
                0.5,
                0.5
            ],
            "translation" : [
                0,
                -0.7628448009490967,
                0
            ]
        },
        {
            "mesh" : 2,
            "name" : "Straw",
            "rotation" : [
                0.013910435140132904,
                -0.05933577939867973,
                -0.09555268287658691,
                0.9935569763183594
            ],
            "scale" : [
                0.5,
                0.5,
                0.5
            ],
            "translation" : [
                0.5,
                0.6082682013511658,
                0
            ]
        }
    ],
    "materials" : [
        {
            "name" : "Tea",
            "pbrMetallicRoughness" : {
                "metallicFactor" : 0
            }
        },
        {
            "name" : "Outline",
            "pbrMetallicRoughness" : {
                "baseColorFactor" : [
                    0.4969319701194763,
                    0.6514050960540771,
                    1,
                    1
                ],
                "metallicFactor" : 0
            }
        },
        {
            "doubleSided" : true,
            "emissiveFactor" : [
                0.010329816490411758,
                0.0009105735225602984,
                0.012286484241485596
            ],
            "name" : "Balls",
            "pbrMetallicRoughness" : {
                "baseColorFactor" : [
                    0.010329816490411758,
                    0.0009105735225602984,
                    0.012286484241485596,
                    1
                ],
                "metallicFactor" : 0
            }
        }
    ],
    "meshes" : [
        {
            "name" : "Cylinder",
            "primitives" : [
                {
                    "attributes" : {
                        "POSITION" : 0,
                        "NORMAL" : 1,
                        "TEXCOORD_0" : 2,
                        "COLOR_0" : 3
                    },
                    "indices" : 4,
                    "material" : 0
                },
                {
                    "attributes" : {
                        "POSITION" : 5,
                        "NORMAL" : 6,
                        "TEXCOORD_0" : 7,
                        "COLOR_0" : 8
                    },
                    "indices" : 4,
                    "material" : 1
                }
            ]
        },
        {
            "name" : "Icosphere",
            "primitives" : [
                {
                    "attributes" : {
                        "POSITION" : 9,
                        "NORMAL" : 10,
                        "TEXCOORD_0" : 11,
                        "COLOR_0" : 12
                    },
                    "indices" : 13,
                    "material" : 2
                }
            ]
        },
        {
            "name" : "Cylinder.001",
            "primitives" : [
                {
                    "attributes" : {
                        "POSITION" : 14,
                        "NORMAL" : 15,
                        "TEXCOORD_0" : 16
                    },
                    "indices" : 17,
                    "material" : 1
                }
            ]
        }
    ],
    "accessors" : [
        {
            "bufferView" : 0,
            "componentType" : 5126,
            "count" : 66,
            "max" : [
                1.5,
                2,
                1.5
            ],
            "min" : [
                -1.5,
                -2,
                -1.5
            ],
            "type" : "VEC3"
        },
        {
            "bufferView" : 1,
            "componentType" : 5126,
            "count" : 66,
            "type" : "VEC3"
        },
        {
            "bufferView" : 2,
            "componentType" : 5126,
            "count" : 66,
            "type" : "VEC2"
        },
        {
            "bufferView" : 3,
            "componentType" : 5123,
            "count" : 66,
            "normalized" : true,
            "type" : "VEC4"
        },
        {
            "bufferView" : 4,
            "componentType" : 5123,
            "count" : 180,
            "type" : "SCALAR"
        },
        {
            "bufferView" : 5,
            "componentType" : 5126,
            "count" : 66,
            "max" : [
                1.7884172201156616,
                2.2272398471832275,
                1.788417100906372
            ],
            "min" : [
                -1.7884172201156616,
                -2.2325515747070312,
                -1.788417100906372
            ],
            "type" : "VEC3"
        },
        {
            "bufferView" : 6,
            "componentType" : 5126,
            "count" : 66,
            "type" : "VEC3"
        },
        {
            "bufferView" : 7,
            "componentType" : 5126,
            "count" : 66,
            "type" : "VEC2"
        },
        {
            "bufferView" : 8,
            "componentType" : 5123,
            "count" : 66,
            "normalized" : true,
            "type" : "VEC4"
        },
        {
            "bufferView" : 9,
            "componentType" : 5126,
            "count" : 88,
            "max" : [
                0.9050922989845276,
                1.221071720123291,
                0.8978546857833862
            ],
            "min" : [
                -0.9465700387954712,
                -0.5,
                -0.8208644390106201
            ],
            "type" : "VEC3"
        },
        {
            "bufferView" : 10,
            "componentType" : 5126,
            "count" : 88,
            "type" : "VEC3"
        },
        {
            "bufferView" : 11,
            "componentType" : 5126,
            "count" : 88,
            "type" : "VEC2"
        },
        {
            "bufferView" : 12,
            "componentType" : 5123,
            "count" : 88,
            "normalized" : true,
            "type" : "VEC4"
        },
        {
            "bufferView" : 13,
            "componentType" : 5123,
            "count" : 240,
            "type" : "SCALAR"
        },
        {
            "bufferView" : 14,
            "componentType" : 5126,
            "count" : 38,
            "max" : [
                0.3247596323490143,
                2.40000057220459,
                0.375
            ],
            "min" : [
                -0.32475966215133667,
                -2.4000000953674316,
                -0.375
            ],
            "type" : "VEC3"
        },
        {
            "bufferView" : 15,
            "componentType" : 5126,
            "count" : 38,
            "type" : "VEC3"
        },
        {
            "bufferView" : 16,
            "componentType" : 5126,
            "count" : 38,
            "type" : "VEC2"
        },
        {
            "bufferView" : 17,
            "componentType" : 5123,
            "count" : 144,
            "type" : "SCALAR"
        }
    ],
    "bufferViews" : [
        {
            "buffer" : 0,
            "byteLength" : 792,
            "byteOffset" : 0
        },
        {
            "buffer" : 0,
            "byteLength" : 792,
            "byteOffset" : 792
        },
        {
            "buffer" : 0,
            "byteLength" : 528,
            "byteOffset" : 1584
        },
        {
            "buffer" : 0,
            "byteLength" : 528,
            "byteOffset" : 2112
        },
        {
            "buffer" : 0,
            "byteLength" : 360,
            "byteOffset" : 2640
        },
        {
            "buffer" : 0,
            "byteLength" : 792,
            "byteOffset" : 3000
        },
        {
            "buffer" : 0,
            "byteLength" : 792,
            "byteOffset" : 3792
        },
        {
            "buffer" : 0,
            "byteLength" : 528,
            "byteOffset" : 4584
        },
        {
            "buffer" : 0,
            "byteLength" : 528,
            "byteOffset" : 5112
        },
        {
            "buffer" : 0,
            "byteLength" : 1056,
            "byteOffset" : 5640
        },
        {
            "buffer" : 0,
            "byteLength" : 1056,
            "byteOffset" : 6696
        },
        {
            "buffer" : 0,
            "byteLength" : 704,
            "byteOffset" : 7752
        },
        {
            "buffer" : 0,
            "byteLength" : 704,
            "byteOffset" : 8456
        },
        {
            "buffer" : 0,
            "byteLength" : 480,
            "byteOffset" : 9160
        },
        {
            "buffer" : 0,
            "byteLength" : 456,
            "byteOffset" : 9640
        },
        {
            "buffer" : 0,
            "byteLength" : 456,
            "byteOffset" : 10096
        },
        {
            "buffer" : 0,
            "byteLength" : 304,
            "byteOffset" : 10552
        },
        {
            "buffer" : 0,
            "byteLength" : 288,
            "byteOffset" : 10856
        }
    ],
    "buffers" : [
        {
            "byteLength" : 11144,
            "uri" : "data:application/octet-stream;base64,"
        }
    ]
}
