{"asset":{"generator":"Khronos glTF Blender I/O v3.2.40","version":"2.0"},"scene":0,"scenes":[{"name":"Scene","nodes":[0]}],"nodes":[{"mesh":0,"name":"Banan"}],"materials":[{"doubleSided":true,"name":"Banan","pbrMetallicRoughness":{"baseColorTexture":{"index":0},"metallicFactor":0}}],"meshes":[{"name":"Cube.001","primitives":[{"attributes":{"POSITION":0,"NORMAL":1,"TEXCOORD_0":2},"indices":3,"material":0}]}],"textures":[{"sampler":0,"source":0}],"images":[{"bufferView":4,"mimeType":"image/png","name":"Banan"}],"accessors":[{"bufferView":0,"componentType":5126,"count":115,"max":[0.5447208881378174,1.0420893430709839,2.225893020629883],"min":[-0.5447207689285278,-1.1853970289230347,-2.0125160217285156],"type":"VEC3"},{"bufferView":1,"componentType":5126,"count":115,"type":"VEC3"},{"bufferView":2,"componentType":5126,"count":115,"type":"VEC2"},{"bufferView":3,"componentType":5123,"count":432,"type":"SCALAR"}],"bufferViews":[{"buffer":0,"byteLength":1380,"byteOffset":0},{"buffer":0,"byteLength":1380,"byteOffset":1380},{"buffer":0,"byteLength":920,"byteOffset":2760},{"buffer":0,"byteLength":864,"byteOffset":3680},{"buffer":0,"byteLength":505,"byteOffset":4544}],"samplers":[{"magFilter":9728,"minFilter":9984}],"buffers":[{"byteLength":5052,"uri":"data:application/octet-stream;base64,"}]}